# xmcd
#
# Track frame offsets: 
#        150
#        12135
#        25936
#        41535
#        62383
#        83814
#        97737
#        116386
#        126922
#        139314
#        152424
#        167200
#
# Disc length: 2325 seconds
#
# Revision: 0
# Processed by: cddbd v1.5.2PL0 Copyright (c) Steve Scherf et al.
# Submitted via: ExactAudioCopy v1.3
#
DISCID=8909130c
DTITLE=Blas Picon and The Junk Express - I'd Rather Be Dead
DYEAR=2015
DGENRE=Blues
TTITLE0=The Big
TTITLE1=Give Me Time
TTITLE2=On The Edge
TTITLE3=The House Of Dead Dreams
TTITLE4=I'd Rather Be Dead
TTITLE5=I Won't Take You Back
TTITLE6=Junk Joint Shuffle
TTITLE7=You Won't Put Me Down
TTITLE8=Fading Away
TTITLE9=Love Of My Dreams
TTITLE10=If You're Not Around
TTITLE11=The Witch 
EXTD=
EXTT0=
EXTT1=
EXTT2=
EXTT3=
EXTT4=
EXTT5=
EXTT6=
EXTT7=
EXTT8=
EXTT9=
EXTT10=
EXTT11=
PLAYORDER=
